<svg xmlns="http://www.w3.org/2000/svg" viewBox="0 0 64 64" id="logout">
  <path
    d="M32 53.46a19.42 19.42 0 0 1-7.3-37.41 1.5 1.5 0 1 1 1.12 2.78A16.42 16.42 0 1 0 40 48.4a1.5 1.5 0 1 1 1.43 2.6A19.4 19.4 0 0 1 32 53.46zm13.19-5.79a1.53 1.53 0 0 1-1-.39 1.5 1.5 0 0 1-.09-2.12 16.42 16.42 0 0 0-5.9-26.33 1.5 1.5 0 1 1 1.12-2.78 19.41 19.41 0 0 1 7 31.14 1.49 1.49 0 0 1-1.13.48z"
    fill="#FFF"
    stroke="#FFF"
    stroke-width="2"
    stroke-linejoin="round"
  />
  <path
    d="M32 32.2a1.5 1.5 0 0 1-1.5-1.5V12a1.5 1.5 0 0 1 3 0v18.7a1.5 1.5 0 0 1-1.5 1.5Z"
    fill="#FFF"
    stroke="#FFF"
    stroke-width="2"
    stroke-linejoin="round"
  />
</svg>
